<?xml version="1.0" encoding="iso-8859-1"?>
<!-- Uploaded to: SVG Repo, www.svgrepo.com, Generator: SVG Repo Mixer Tools -->
<!DOCTYPE svg PUBLIC "-//W3C//DTD SVG 1.1//EN" "http://www.w3.org/Graphics/SVG/1.1/DTD/svg11.dtd">
<svg height="800px" width="800px" version="1.1" id="Capa_1" xmlns="http://www.w3.org/2000/svg" xmlns:xlink="http://www.w3.org/1999/xlink" 
	 viewBox="0 0 228.256 228.256" xml:space="preserve">
<g>
	<path style="fill:#000002;" d="M114.128,0C51.198,0,0,51.198,0,114.128s51.198,114.128,114.128,114.128
		s114.128-51.198,114.128-114.128S177.058,0,114.128,0z M121.628,212.974v-15.26c0-4.142-3.358-7.5-7.5-7.5
		c-4.142,0-7.5,3.358-7.5,7.5v15.26c-48.693-3.66-87.686-42.653-91.346-91.346h15.26c4.142,0,7.5-3.358,7.5-7.5
		c0-4.142-3.358-7.5-7.5-7.5h-15.26c3.66-48.693,42.653-87.686,91.346-91.346v15.26c0,4.142,3.358,7.5,7.5,7.5
		c4.142,0,7.5-3.358,7.5-7.5v-15.26c48.693,3.66,87.686,42.653,91.346,91.346h-15.26c-4.142,0-7.5,3.358-7.5,7.5
		c0,4.142,3.358,7.5,7.5,7.5h15.26C209.313,170.321,170.321,209.313,121.628,212.974z"/>
	<path style="fill:#000002;" d="M162.583,106.628h-41.905L86.892,54.072c-2.241-3.485-6.881-4.492-10.365-2.253
		c-3.484,2.24-4.493,6.88-2.253,10.365l36,56c0.011,0.017,0.025,0.031,0.036,0.049c0.16,0.244,0.332,0.479,0.518,0.702
		c0.047,0.057,0.099,0.107,0.149,0.163c0.14,0.157,0.284,0.31,0.436,0.455c0.08,0.076,0.161,0.149,0.243,0.221
		c0.14,0.122,0.285,0.238,0.433,0.349c0.079,0.059,0.155,0.121,0.235,0.176c0.227,0.157,0.461,0.304,0.705,0.435
		c0.032,0.017,0.066,0.031,0.099,0.048c0.221,0.115,0.447,0.218,0.68,0.311c0.071,0.028,0.144,0.053,0.216,0.079
		c0.199,0.072,0.401,0.136,0.608,0.192c0.08,0.021,0.159,0.042,0.239,0.061c0.207,0.049,0.417,0.086,0.629,0.117
		c0.077,0.011,0.152,0.026,0.229,0.035c0.264,0.03,0.531,0.047,0.802,0.049c0.02,0,0.039,0.003,0.058,0.003
		c0.004,0,0.009-0.001,0.014-0.001h45.979c4.142,0,7.5-3.358,7.5-7.5C170.083,109.986,166.725,106.628,162.583,106.628z"/>
</g>
</svg>