<?xml version='1.0' encoding='iso-8859-1'?>
<!DOCTYPE svg PUBLIC '-//W3C//DTD SVG 1.1//EN' 'http://www.w3.org/Graphics/SVG/1.1/DTD/svg11.dtd'>
<!-- Uploaded to: SVG Repo, www.svgrepo.com, Generator: SVG Repo Mixer Tools -->
<svg fill="#000000" height="800px" width="800px" version="1.1" xmlns="http://www.w3.org/2000/svg" viewBox="0 0 315 315" xmlns:xlink="http://www.w3.org/1999/xlink" enable-background="new 0 0 315 315">
  <g>
    <path d="m276.719,133.014l-113.946-130.616c-1.329-1.524-3.251-2.398-5.274-2.398-2.022,0-3.945,0.875-5.275,2.398l-113.944,130.616c-2.541,2.913-2.239,7.335 0.674,9.877 2.914,2.541 7.334,2.24 9.877-0.674l13.104-15.021 33.381,95.327h-12.532c-3.866,0-7,3.134-7,7 0,3.866 3.134,7 7,7h22.373c0.009,0 0.017,0.002 0.025,0.002 0.008,0 0.016-0.002 0.023-0.002h45.293v35.54c-8.731,2.933-15.041,11.189-15.041,20.896 0,12.153 9.888,22.041 22.041,22.041 12.154,0 22.043-9.888 22.043-22.041 0-9.707-6.311-17.963-15.043-20.897v-35.539h45.297c0.008,0 0.016,0.002 0.023,0.002 0.009,0 0.017-0.002 0.025-0.002h22.371c3.866,0 7-3.134 7-7 0-3.866-3.134-7-7-7h-12.529l33.379-95.328 13.105,15.021c1.384,1.587 3.325,2.398 5.277,2.398 1.632,0 3.272-0.567 4.599-1.726 2.914-2.539 3.216-6.961 0.674-9.874zm-119.22,167.986c-4.434,0-8.041-3.607-8.041-8.041 0-4.435 3.607-8.042 8.041-8.042 4.435,0 8.043,3.607 8.043,8.042 0,4.434-3.608,8.041-8.043,8.041zm47.355-78.477h-94.706l-37.629-107.46 84.98-97.414 84.982,97.414-37.627,107.46z"/>
    <path d="m138.07,127.482c-2.796,2.671-2.897,7.102-0.227,9.897l14.717,15.408c1.349,1.412 3.189,2.165 5.064,2.165 0.914,0 1.837-0.179 2.715-0.549l15.139-6.376c3.564-1.501 5.235-5.605 3.734-9.168-1.501-3.564-5.609-5.236-9.168-3.734l-10.692,4.503-11.384-11.919c-2.671-2.793-7.102-2.895-9.898-0.227z"/>
    <path d="m105.288,147.953c0,28.79 23.422,52.212 52.211,52.212 28.79,0 52.213-23.422 52.213-52.212 0-28.79-23.423-52.213-52.213-52.213-28.789-4.26326e-14-52.211,23.423-52.211,52.213zm90.424,0c0,21.07-17.143,38.212-38.213,38.212-21.069,0-38.211-17.142-38.211-38.212s17.142-38.213 38.211-38.213c21.07-4.26326e-14 38.213,17.143 38.213,38.213z"/>
    <path d="m140.616,61.206v19.374c0,3.866 3.134,7 7,7h19.768c3.866,0 7-3.134 7-7v-19.374c0-9.311-7.574-16.885-16.885-16.885-9.309,0-16.883,7.575-16.883,16.885zm19.768,0v12.374h-5.768v-12.374c0-1.591 1.293-2.885 2.883-2.885 1.591-7.10543e-15 2.885,1.294 2.885,2.885z"/>
  </g>
</svg>